<svg version="1.1" xmlns="http://www.w3.org/2000/svg" xmlns:xlink="http://www.w3.org/1999/xlink" width="345.83334" height="304.28679" viewBox="0,0,345.83334,304.28679"><g transform="translate(-40.95346,10.19895)"><g data-paper-data="{&quot;isPaintingLayer&quot;:true}" fill="#000000" fill-rule="nonzero" stroke-width="2.5" stroke-linecap="butt" stroke-linejoin="miter" stroke-miterlimit="10" stroke-dasharray="" stroke-dashoffset="0" style="mix-blend-mode: normal"><path d="M158.82508,42.61261v-51.05105h55.55556v51.05105z" stroke="#ffffff"/><path d="M160.32658,90.66066v-46.54655h54.05405v46.54655z" stroke="#ffffff"/><path d="M163.32958,143.21321v-48.04805h49.54955v48.04805z" stroke="#ffffff"/><path d="M207.50164,143.05047l-20.12669,42.8972l-16.87275,-42.93978z" stroke="#ff0000"/><path d="M216.37763,43.10811v-51.05105h55.55556v51.05106z" stroke="#ffffff"/><path d="M217.87913,91.15616v-46.54654h54.05406v46.54654z" stroke="#ffffff"/><path d="M42.20346,46.11111v-51.05105h55.55556v51.05105z" stroke="#ffffff"/><path d="M43.70496,94.15916v-46.54655h54.05405v46.54655z" stroke="#ffffff"/><path d="M99.75601,46.60661v-51.05105h55.55556v51.05106z" stroke="#ffffff"/><path d="M101.25751,94.65466v-46.54654h54.05406v46.54654z" stroke="#ffffff"/><path d="M272.42869,42.1021v-51.05105h55.55556v51.05105z" stroke="#ffffff"/><path d="M273.93019,90.15015v-46.54655h54.05405v46.54655z" stroke="#ffffff"/><path d="M329.98124,42.5976v-51.05105h55.55556v51.05106z" stroke="#ffffff"/><path d="M331.48274,90.64565v-46.54654h54.05406v46.54654z" stroke="#ffffff"/><path d="M217.36862,143.1982v-51.05105h55.55556v51.05105z" stroke="#ffffff"/><path d="M218.87012,191.24625v-46.54655h54.05405v46.54655z" stroke="#ffffff"/><path d="M274.92117,143.6937v-51.05105h55.55556v51.05106z" stroke="#ffffff"/><path d="M276.42267,191.74175v-46.54654h54.05406v46.54654z" stroke="#ffffff"/><path d="M220.86712,244.29429v-51.05105h55.55556v51.05105z" stroke="#ffffff"/><path d="M222.36862,292.34234v-46.54655h54.05405v46.54655z" stroke="#ffffff"/><path d="M278.41967,244.78979v-51.05105h55.55556v51.05106z" stroke="#ffffff"/><path d="M279.92117,292.83784v-46.54654h54.05406v46.54654z" stroke="#ffffff"/></g></g></svg>