<svg version="1.1" xmlns="http://www.w3.org/2000/svg" xmlns:xlink="http://www.w3.org/1999/xlink" width="205.15466" height="202.15165" viewBox="0,0,205.15466,202.15165"><g transform="translate(-161.18694,-28.09084)"><g data-paper-data="{&quot;isPaintingLayer&quot;:true}" fill="#000000" fill-rule="nonzero" stroke-width="2.5" stroke-linecap="butt" stroke-linejoin="miter" stroke-miterlimit="10" stroke-dasharray="" stroke-dashoffset="0" style="mix-blend-mode: normal"><path d="M215.50001,228.0015v-48h48v48z" stroke="#ff0000"/><path d="M166.44595,226.9955v-48h48v48z" stroke="#ffffff"/><path d="M215.9955,177.44594v-48h48v48z" stroke="#ff0000"/><path d="M166.94145,176.43994v-48h48v48z" stroke="#ffffff"/><path d="M316.5961,226.9955v-48h48v48z" stroke="#ffffff"/><path d="M267.54205,228.99249v-48h48v48z" stroke="#ff0000"/><path d="M317.0916,176.43994v-48h48v48z" stroke="#ffffff"/><path d="M268.03754,178.43694v-48h48v48z" stroke="#ff0000"/><path d="M212.9925,130.8994v-48h48v48z" stroke="#ff0000"/><path d="M162.43694,128.39189v-48h48v48z" stroke="#ffffff"/><path d="M211.98649,77.34084v-48h48v48z" stroke="#ffffff"/><path d="M162.93244,77.83634v-48h48v48z" stroke="#ffffff"/><path d="M312.58709,128.39189v-48h48v48z" stroke="#ffffff"/><path d="M263.53304,130.38889v-48h48v48z" stroke="#ff0000"/><path d="M313.08259,77.83634v-48h48v48z" stroke="#ffffff"/><path d="M264.02853,78.33183v-48h48v48z" stroke="#ffffff"/></g></g></svg>