<svg version="1.1" xmlns="http://www.w3.org/2000/svg" xmlns:xlink="http://www.w3.org/1999/xlink" width="252.89156" height="200.65015" viewBox="0,0,252.89156,200.65015"><g transform="translate(-161.18694,-28.09084)"><g data-paper-data="{&quot;isPaintingLayer&quot;:true}" fill="#000000" fill-rule="nonzero" stroke-width="2.5" stroke-linecap="butt" stroke-linejoin="miter" stroke-miterlimit="10" stroke-dasharray="" stroke-dashoffset="0" style="mix-blend-mode: normal"><path d="M215.50001,226.5v-48h48v48z" stroke="#ff0000"/><path d="M166.44595,226.9955v-48h48v48z" stroke="#ffffff"/><path d="M215.9955,175.94444v-48h48v48z" stroke="#ff0000"/><path d="M166.94145,176.43994v-48h48v48z" stroke="#ffffff"/><path d="M316.5961,226.9955v-48h48v48z" stroke="#ffffff"/><path d="M267.54205,227.49099v-48h48v48z" stroke="#ff0000"/><path d="M317.0916,176.43994v-48h48v48z" stroke="#ffffff"/><path d="M268.03754,176.93544v-48h48v48z" stroke="#ff0000"/><path d="M211.491,127.8964v-48h48v48z" stroke="#ff0000"/><path d="M162.43694,128.39189v-48h48v48z" stroke="#ffffff"/><path d="M211.98649,77.34084v-48h48v48z" stroke="#ffffff"/><path d="M162.93244,77.83634v-48h48v48z" stroke="#ffffff"/><path d="M312.58709,128.39189v-48h48v48z" stroke="#ffffff"/><path d="M263.53304,128.88739v-48h48v48z" stroke="#ff0000"/><path d="M313.08259,77.83634v-48h48v48z" stroke="#ffffff"/><path d="M264.02853,78.33183v-48h48v48z" stroke="#ffffff"/><path d="M363.12764,78.33184v-48l44.997,21.02102l-1.5015,5.95796z" stroke="#ff0000"/><path d="M365.12463,128.37688v-48l44.997,21.02102l-1.5015,5.95796z" stroke="#ff0000"/><path d="M367.12163,175.41892v-48l44.99699,21.02102l-1.5015,5.95796z" stroke="#ff0000"/><path d="M367.61712,223.96246v-48l44.997,21.02102l-1.5015,5.95796z" stroke="#ff0000"/></g></g></svg>